<svg xmlns="http://www.w3.org/2000/svg" width="25" height="24" viewBox="0 0 25 24" fill="none">
<path fill-rule="evenodd" clip-rule="evenodd" d="M12.5 24C19.1274 24 24.5 18.6274 24.5 12C24.5 5.37258 19.1274 0 12.5 0C5.87258 0 0.5 5.37258 0.5 12C0.5 18.6274 5.87258 24 12.5 24ZM18.2117 9.18026C18.6426 8.67674 18.5838 7.91922 18.0803 7.4883C17.5767 7.05738 16.8192 7.11622 16.3883 7.61974L11.138 13.7545L8.6117 10.8025C8.18078 10.299 7.42326 10.2402 6.91974 10.6711C6.41622 11.102 6.35738 11.8595 6.7883 12.363L11.138 17.4455L18.2117 9.18026Z" fill="#019CB0"/>
</svg>